<svg width="115" height="22" viewBox="0 0 115 22" fill="none" xmlns="http://www.w3.org/2000/svg">
<path fill-rule="evenodd" clip-rule="evenodd" d="M29.2725 8.35278H35.9844V17.946H36.0331C38.6835 17.946 40.8322 15.8597 40.8322 13.2859V8.35278H47.7307V4.36975H29.2725V8.35278Z" fill="#F6F8FB"/>
<path fill-rule="evenodd" clip-rule="evenodd" d="M61.4058 13.9653H56.7926C55.1836 13.9653 53.7933 12.7674 53.7182 11.2066C53.6383 9.54697 55.0058 8.17167 56.6982 8.17167H61.3112C62.9202 8.17167 64.3107 9.36974 64.3857 10.9303C64.4655 12.5904 63.0979 13.9653 61.4058 13.9653ZM62.5459 4.18884H55.5582C51.6613 4.18884 48.4731 7.28467 48.4731 11.0685C48.4731 14.8523 51.6613 17.9483 55.5582 17.9483H62.5459C66.4425 17.9483 69.6309 14.8523 69.6309 11.0685C69.6309 7.28467 66.4425 4.18884 62.5459 4.18884Z" fill="#F6F8FB"/>
<path fill-rule="evenodd" clip-rule="evenodd" d="M106.115 13.9653H101.502C99.8931 13.9653 98.5026 12.7674 98.4274 11.2066C98.3476 9.54697 99.7152 8.17167 101.407 8.17167H106.021C107.629 8.17167 109.02 9.36974 109.095 10.9303C109.175 12.5904 107.807 13.9653 106.115 13.9653ZM107.255 4.18884H100.267C96.3708 4.18884 93.1826 7.28467 93.1826 11.0685C93.1826 14.8523 96.3708 17.9483 100.267 17.9483H107.255C111.152 17.9483 114.34 14.8523 114.34 11.0685C114.34 7.28467 111.152 4.18884 107.255 4.18884Z" fill="#F6F8FB"/>
<path fill-rule="evenodd" clip-rule="evenodd" d="M85.3933 9.271C85.3933 9.96081 84.8119 10.5256 84.101 10.5256H77.5616V7.9911H84.101C84.8119 7.9911 85.3933 8.55569 85.3933 9.24592V9.271ZM90.3029 9.47702C90.3029 8.12207 89.7327 6.89089 88.8119 5.99629C87.8925 5.10375 86.6244 4.55005 85.2292 4.55005H72.1553V12.2013V14.5082V17.7665H77.3753V14.5082H82.8941L84.8303 17.7665H90.3029L87.9554 13.6264C89.3637 12.748 90.3029 11.2138 90.3029 9.47702Z" fill="#F6F8FB"/>
<path fill-rule="evenodd" clip-rule="evenodd" d="M10.6275 21.8606V16.4558C10.6275 16.3977 10.5598 16.3646 10.5115 16.3993C7.75038 18.3883 4.60794 20.2018 1.15233 21.7969C1.08246 21.8294 1.10617 21.9314 1.18367 21.9314H10.5547C10.5949 21.9314 10.6275 21.8995 10.6275 21.8606Z" fill="white"/>
<path fill-rule="evenodd" clip-rule="evenodd" d="M21.8133 0.317211C21.8474 0.270333 21.8127 0.205566 21.7538 0.205566H7.52082C3.36731 0.205566 0 3.4482 0 7.44809V14.2284C0 14.2769 0.0491238 14.3111 0.096342 14.2954C9.8055 11.1202 17.5364 6.16633 21.8133 0.317211Z" fill="white"/>
<path fill-rule="evenodd" clip-rule="evenodd" d="M14.543 13.2996V21.8607C14.543 21.8995 14.5756 21.9312 14.6158 21.9312H14.8534C19.0067 21.9312 22.3738 18.6888 22.3738 14.6889V2.2005C22.3738 2.12093 22.2592 2.10202 22.2323 2.17727C20.8262 6.1237 18.1919 9.87233 14.5652 13.2488C14.551 13.262 14.543 13.2803 14.543 13.2996Z" fill="white"/>
</svg>
